<!-- Generated by IcoMoon.io -->
<svg version="1.1" xmlns="http://www.w3.org/2000/svg" width="230" height="32" viewBox="0 0 230 32">
<title>WebStudio</title>
<path fill="#2196f3" d="M13.187 0.947h5.325l3.37 9.776 3.411-9.776h5.283l-5.075 13.437 3.744 9.402 8.362-22.922h6.24l-11.814 29.536h-4.95l-5.2-12.397-5.158 12.397h-4.95l-11.773-29.536h6.157l8.403 22.922 3.661-9.402-5.034-13.437zM54.763 30.816c-1.747 0-3.328-0.291-4.742-0.874-1.41-0.602-2.612-1.431-3.618-2.453l-0.001-0.001c-0.961-1.008-1.746-2.194-2.301-3.501l-0.029-0.077c-0.5-1.256-0.791-2.712-0.791-4.236 0-0.017 0-0.034 0-0.052v0.003c0-2.080 0.458-3.979 1.373-5.699 0.953-1.722 2.308-3.118 3.944-4.091l0.049-0.027c1.747-1.054 3.8-1.581 6.157-1.581 2.384 0 4.424 0.528 6.115 1.581 1.652 0.995 2.97 2.393 3.842 4.062l0.027 0.056c0.864 1.565 1.373 3.43 1.373 5.414 0 0.027-0 0.054-0 0.081l0-0.004c-0.001 0.367-0.016 0.73-0.045 1.088l0.003-0.048c-0.027 0.333-0.056 0.61-0.083 0.832h-16.848c0.112 1.109 0.43 2.080 0.957 2.912 0.555 0.832 1.248 1.47 2.080 1.914 0.859 0.416 1.776 0.624 2.746 0.624 1.109 0 2.149-0.264 3.12-0.79 0.998-0.555 1.678-1.275 2.038-2.163l4.784 1.331c-0.569 1.166-1.34 2.149-2.275 2.943l-0.013 0.011c-0.976 0.855-2.122 1.546-3.377 2.014l-0.076 0.025c-1.331 0.472-2.8 0.707-4.41 0.707zM49.064 17.754h11.398c-0.112-1.109-0.43-2.066-0.957-2.87-0.483-0.812-1.16-1.463-1.97-1.9l-0.027-0.013c-0.781-0.445-1.716-0.708-2.713-0.708-0.026 0-0.052 0-0.078 0.001l0.004-0c-0.016-0-0.035-0-0.054-0-0.989 0-1.917 0.262-2.718 0.722l0.027-0.014c-0.825 0.467-1.499 1.114-1.983 1.89l-0.013 0.023c-0.499 0.805-0.805 1.76-0.915 2.87zM83.202 30.816c-1.664 0-3.147-0.374-4.451-1.123-1.292-0.743-2.335-1.787-3.057-3.039l-0.021-0.040v3.786h-4.867v-30.368h5.574v12.397c0.752-1.273 1.776-2.311 2.998-3.057l0.038-0.022c1.277-0.749 2.76-1.123 4.451-1.123 1.414 0 2.704 0.304 3.869 0.915 1.194 0.607 2.194 1.433 2.981 2.435l0.014 0.019c0.837 1.026 1.504 2.229 1.934 3.541l0.022 0.079c0.472 1.36 0.707 2.816 0.707 4.368s-0.262 3.008-0.79 4.368c-0.512 1.394-1.232 2.595-2.134 3.633l0.012-0.014c-0.892 1.001-1.971 1.813-3.184 2.387l-0.060 0.026c-1.219 0.555-2.565 0.832-4.035 0.832zM81.662 26.074c0.888 0 1.693-0.166 2.413-0.499 0.749-0.36 1.387-0.832 1.914-1.414 0.555-0.582 0.971-1.262 1.248-2.038 0.306-0.805 0.458-1.637 0.458-2.496 0-1.192-0.25-2.288-0.749-3.286-0.451-1.001-1.132-1.829-1.979-2.442l-0.018-0.012c-0.832-0.61-1.816-0.915-2.954-0.915-0.803 0-1.581 0.194-2.33 0.582-0.72 0.36-1.373 0.859-1.955 1.498-0.538 0.618-0.986 1.333-1.312 2.111l-0.019 0.052v5.2c0.174 0.576 0.444 1.075 0.796 1.505l-0.006-0.008c0.389 0.443 0.832 0.832 1.331 1.165 0.499 0.304 1.013 0.555 1.539 0.749 0.485 0.155 1.042 0.246 1.62 0.25h0.002z"></path>
<path fill="#000" d="M116.557 8.602c-0.194-0.194-0.555-0.458-1.082-0.79-0.536-0.351-1.153-0.672-1.8-0.931l-0.072-0.025c-0.72-0.304-1.512-0.568-2.371-0.79-0.785-0.238-1.686-0.374-2.62-0.374-0 0-0.001 0-0.001 0h0c-1.552 0-2.731 0.291-3.536 0.874-0.776 0.582-1.165 1.4-1.165 2.454 0 0.805 0.25 1.442 0.749 1.914s1.248 0.874 2.246 1.206c0.998 0.333 2.246 0.693 3.744 1.082 1.941 0.472 3.619 1.054 5.034 1.747 1.442 0.666 2.538 1.552 3.286 2.662 0.776 1.082 1.165 2.523 1.165 4.326 0 1.581-0.291 2.939-0.874 4.077-0.581 1.105-1.397 2.015-2.387 2.688l-0.025 0.016c-1.001 0.676-2.167 1.206-3.418 1.523l-0.077 0.016c-1.304 0.304-2.69 0.458-4.16 0.458s-2.939-0.152-4.41-0.458c-1.627-0.34-3.047-0.784-4.404-1.349l0.16 0.059c-1.433-0.615-2.664-1.311-3.807-2.122l0.063 0.042 2.538-4.95c0.25 0.25 0.693 0.582 1.331 0.998 0.638 0.389 1.414 0.79 2.33 1.206 0.915 0.389 1.914 0.72 2.995 0.998 0.986 0.264 2.118 0.416 3.286 0.416 0 0 0 0 0.001 0h-0c1.552 0 2.731-0.264 3.536-0.79 0.805-0.528 1.206-1.275 1.206-2.246 0-0.888-0.32-1.581-0.957-2.080-0.638-0.499-1.525-0.928-2.662-1.29-0.736-0.281-2.080-0.707-3.439-1.1l-0.596-0.148c-1.858-0.528-3.411-1.109-4.659-1.747-1.248-0.666-2.176-1.498-2.787-2.496-0.61-0.998-0.915-2.246-0.915-3.744 0-2.024 0.472-3.717 1.414-5.075 0.971-1.387 2.274-2.427 3.91-3.12 1.637-0.72 3.453-1.082 5.45-1.082 1.387 0 2.69 0.152 3.91 0.458 1.248 0.304 2.413 0.707 3.494 1.206s2.053 1.040 2.912 1.622l-2.538 4.659zM137.755 29.277c-0.472 0.194-1.040 0.416-1.706 0.666-0.612 0.235-1.338 0.437-2.089 0.571l-0.075 0.011c-0.684 0.159-1.47 0.25-2.278 0.25-0.004 0-0.007 0-0.011 0h0.001c-1.027 0-1.97-0.181-2.829-0.541-0.862-0.362-1.57-0.95-2.070-1.689l-0.010-0.016c-0.499-0.805-0.749-1.845-0.749-3.12v-12.522h-2.87v-4.285h2.87v-7.072h5.574v7.072h4.576v4.285h-4.576v10.65c0.027 0.749 0.235 1.29 0.624 1.622 0.387 0.333 0.874 0.499 1.456 0.499s1.15-0.096 1.706-0.291c0.554-0.194 0.998-0.36 1.331-0.499l1.123 4.41zM141.698 22.246v-13.645h5.574v12.438c0 1.664 0.304 2.926 0.915 3.786 0.61 0.832 1.512 1.248 2.704 1.248 0.72 0 1.429-0.139 2.122-0.416 0.761-0.33 1.41-0.779 1.955-1.331l0.001-0.001c0.61-0.582 1.123-1.317 1.539-2.205v-13.52h5.574v15.558c0 0.582 0.098 0.998 0.291 1.248 0.222 0.25 0.568 0.402 1.040 0.458v4.534c-0.555 0.083-1.026 0.139-1.414 0.166-0.299 0.050-0.644 0.081-0.996 0.083h-0.002c-0.998 0-1.816-0.222-2.454-0.666-0.61-0.472-0.971-1.109-1.082-1.914l-0.125-1.747c-0.937 1.43-2.201 2.574-3.69 3.344l-0.054 0.025c-1.525 0.749-3.203 1.123-5.034 1.123-2.246 0-3.952-0.72-5.117-2.163-1.165-1.47-1.747-3.605-1.747-6.406zM167.538 19.501c0-2.107 0.416-4.008 1.248-5.699 0.832-1.72 1.984-3.078 3.453-4.077 1.47-0.998 3.149-1.498 5.034-1.498 1.61 0 3.051 0.402 4.326 1.206 1.304 0.776 2.317 1.776 3.037 2.995v-12.397h5.574v24.128c0 0.582 0.098 0.998 0.291 1.248 0.195 0.25 0.528 0.402 0.998 0.458v4.534c-0.97 0.194-1.76 0.291-2.371 0.291-0.998 0-1.83-0.25-2.496-0.749-0.604-0.46-1.010-1.154-1.081-1.945l-0.001-0.011-0.083-1.373c-0.786 1.334-1.904 2.399-3.242 3.099l-0.044 0.021c-1.238 0.681-2.713 1.082-4.281 1.082-0.001 0-0.002 0-0.004 0h0c-0.028 0-0.060 0-0.093 0-1.474 0-2.872-0.322-4.129-0.899l0.062 0.025c-1.285-0.607-2.376-1.419-3.279-2.405l-0.007-0.008c-0.899-1.013-1.631-2.199-2.136-3.498l-0.027-0.079c-0.475-1.297-0.749-2.795-0.749-4.357 0-0.033 0-0.066 0-0.1l-0 0.005zM184.635 22.413v-5.2c-0.297-0.844-0.751-1.566-1.333-2.165l0.001 0.001c-0.572-0.606-1.247-1.108-1.997-1.479l-0.041-0.018c-0.649-0.358-1.422-0.572-2.243-0.582l-0.003-0c-0.859 0-1.635 0.181-2.33 0.541-0.716 0.379-1.323 0.866-1.824 1.448l-0.007 0.008c-0.491 0.603-0.886 1.308-1.15 2.073l-0.014 0.048c-0.238 0.747-0.375 1.606-0.375 2.497 0 0.014 0 0.029 0 0.043v-0.002c0 0.888 0.139 1.733 0.416 2.538 0.601 1.52 1.734 2.721 3.165 3.395l0.038 0.016c0.749 0.333 1.554 0.499 2.413 0.499 0.528 0 1.054-0.083 1.581-0.25 0.555-0.194 1.069-0.443 1.539-0.749 0.499-0.333 0.93-0.72 1.29-1.165 0.389-0.472 0.68-0.971 0.874-1.498zM196.93 30.4v-21.798h5.574v21.798h-5.574zM196.93 5.565v-5.533h5.574v5.533h-5.574zM218.848 30.816c-1.774 0-3.37-0.291-4.784-0.874-1.415-0.606-2.618-1.449-3.615-2.492l-0.004-0.004c-0.941-1.018-1.701-2.22-2.22-3.542l-0.027-0.077c-0.5-1.257-0.791-2.714-0.791-4.239 0-0.016 0-0.032 0-0.049v0.003c0-1.525 0.264-2.968 0.79-4.326 0.545-1.4 1.306-2.601 2.253-3.627l-0.007 0.008c0.995-1.042 2.201-1.874 3.55-2.429l0.069-0.025c1.414-0.61 3.010-0.915 4.784-0.915s3.355 0.304 4.742 0.915c1.418 0.58 2.624 1.412 3.615 2.45l0.004 0.004c0.961 1.008 1.724 2.213 2.223 3.547l0.024 0.072c0.526 1.36 0.79 2.8 0.79 4.326 0 0.014 0 0.030 0 0.046 0 1.525-0.29 2.982-0.818 4.319l0.028-0.080c-0.522 1.407-1.286 2.612-2.25 3.623l0.004-0.004c-0.983 1.053-2.174 1.898-3.51 2.47l-0.068 0.026c-1.414 0.582-3.010 0.874-4.784 0.874zM213.149 19.542c0 1.275 0.25 2.413 0.749 3.411 0.477 0.943 1.17 1.716 2.017 2.274l0.022 0.014c0.859 0.555 1.83 0.832 2.912 0.832 1.054 0 2.011-0.277 2.87-0.832 0.859-0.582 1.539-1.36 2.038-2.33 0.526-0.998 0.79-2.136 0.79-3.411 0-1.248-0.264-2.371-0.79-3.37-0.499-0.998-1.179-1.776-2.038-2.33-0.795-0.522-1.769-0.832-2.816-0.832-0.019 0-0.038 0-0.057 0l0.003-0c-0.019-0-0.042-0-0.066-0-1.063 0-2.049 0.327-2.864 0.885l0.017-0.011c-0.859 0.555-1.539 1.331-2.038 2.33-0.499 0.971-0.749 2.094-0.749 3.37z"></path>
</svg>
